<?xml version="1.0" encoding="UTF-8" standalone="no"?>
<svg
   xmlns:dc="http://purl.org/dc/elements/1.1/"
   xmlns:cc="http://creativecommons.org/ns#"
   xmlns:rdf="http://www.w3.org/1999/02/22-rdf-syntax-ns#"
   xmlns:svg="http://www.w3.org/2000/svg"
   xmlns="http://www.w3.org/2000/svg"
   version="1.1"
   viewBox="0 0 176.6875 185.93755"
   id="svg2">
  <defs
     id="defs8" />
  <path
     style="fill:#d40000"
     d="m 135.28,10 0.15625,12.594 -4.1562,-3.4688 -1.4062,8.5938 -0.53125,-13.031 3.875,3.1875 2.0625,-7.875 z m -16.938,0.21875 3.7812,12 -5,-2.0938 1.1875,8.625 -4.31,-12.312 4.625,1.9375 -0.28125,-8.1562 z m -20.344,9.7188 9.625,8.1562 -5.3438,0.875 5.5625,6.6562 -10.188,-8.0938 4.9375,-0.84375 -4.5938,-6.75 z m -32.469,2.5 c 2.6792,0 4.8125,3.2638 4.8125,7.2812 l 0,41.938 c 0,4.0175 -2.1333,7.2812 -4.8125,7.2812 l -5.2812,0 c -2.6792,0 -4.8438,-3.2638 -4.8438,-7.2812 l 0,-41.938 c 0,-4.0175 2.1645,-7.2812 4.8438,-7.2812 z m 62.693,11.187 c 6.5226,0.005 12.731,3.604 15.469,9.5938 3.2642,7.1431 0.4902,15.283 -6.1562,19.438 4.0528,0.62321 7.125,3.715 7.125,7.4688 l 0,54.188 0,5.6562 0,2.0312 c 0,0.26594 -0.0363,0.52488 -0.0625,0.78125 l 7.5938,0 0,-20.656 c -1.0198,-0.71596 -1.6562,-1.7364 -1.6562,-2.875 l 0,-28.219 c 0,-2.1755 2.3344,-3.9688 5.2188,-3.9688 l 0.34375,0 4.3125,0 1.0625,0 0,0.0313 c 2.8843,0 5.2188,1.762 5.2188,3.9375 l 0,28.219 c 0,1.3819 -0.95213,2.6131 -2.375,3.3125 l 0,59.25 c 0,2.1734 -1.7388,3.9375 -3.9062,3.9375 l -4.3125,0 c -2.1675,0 -3.9062,-1.7641 -3.9062,-3.9375 l 0,-26.875 -29.344,0 0,26.625 c 0,2.3097 -1.7701,4.1875 -3.9375,4.1875 l -4.3125,0 c -2.1675,0 -3.9062,-1.8778 -3.9062,-4.1875 l 0,-33.719 -10.094,0 -12.094,12.219 0,21.062 c 0,2.6792 -2.7378,4.8125 -6.125,4.8125 l -4.375,0 c -3.3873,0 -6.125,-2.1333 -6.125,-4.8125 l 0,-4.25 -4.6562,4.7188 c -3.459,3.5003 -8.1458,4.4265 -10.531,2.0625 l -5.0312,-5 c -0.0904,-0.0896 -0.16887,-0.18502 -0.25,-0.28125 l 0,2.75 c 0,2.6792 -2.7378,4.8125 -6.125,4.8125 l -4.375,0 c -3.3873,0 -6.0938,-2.1333 -6.0938,-4.8125 l 0,-58.719 -18.031,0 c -3.7587,0 -6.7812,-2.7066 -6.7812,-6.0938 l 0,-4.4062 c 0,-3.3873 3.0225,-6.0938 6.7812,-6.0938 l 28.938,0 0,-41.812 c 0,-2.144 1.7761,-3.875 4,-3.875 2.2239,0 4.0312,1.731 4.0312,3.875 l 0,41.812 4.7812,0 c -0.37163,-0.77345 -0.5625,-1.6818 -0.5625,-2.625 0,-3.0366 2.1636,-5.4688 4.875,-5.4688 l 17.469,0 c 1.0329,-1.9053 3.2363,-3.6945 6.0938,-4.6875 l 32.621,-11.326 c 2.0075,-0.6977 3.9883,-0.8982 5.6875,-0.65625 l 0,-0.90625 c 0,-1.8565 0.75264,-3.5274 2,-4.8438 -5.9608,-0.5029 -11.438,-3.9938 -13.969,-9.5312 -3.6735,-8.0387 0.27147,-17.355 8.8125,-20.812 l 0.1562,-0.063 0,0 c 2.1297,-0.84022 4.3258,-1.2516 6.5,-1.25 z m -3.5,52.156 c -0.22875,0.0932 -0.44937,0.19848 -0.6875,0.28125 l -21.5,7.5 c -0.0471,0.80633 -0.20817,1.5776 -0.53125,2.25 l 7.25,0 c 3.7587,0 6.7812,2.7066 6.7812,6.0938 l 0,4.4062 c 0,3.3873 -3.0225,6.0938 -6.7812,6.0938 l -20.75,0 0,10.344 0.53125,-0.53125 c 2.378,-2.4065 5.3224,-3.5765 7.7188,-3.3125 0.52609,-0.28342 1.1132,-0.4375 1.7188,-0.4375 l 26.25,0 0,-32.688 z m -52.844,26.625 -20.469,0 0,48.656 c 0.54062,-1.038 1.2669,-2.0684 2.1875,-3 l 18.281,-18.5 0,-27.156 z"
     id="path3766" />
  <metadata
     id="metadata4">
    <rdf:RDF>
      <cc:Work>
        <dc:format>image/svg+xml</dc:format>
        <dc:type
           rdf:resource="http://purl.org/dc/dcmitype/StillImage" />
        <cc:license
           rdf:resource="http://creativecommons.org/licenses/publicdomain/" />
        <dc:publisher>
          <cc:Agent
             rdf:about="http://openclipart.org/">
            <dc:title>Openclipart</dc:title>
          </cc:Agent>
        </dc:publisher>
        <dc:title></dc:title>
        <dc:date>2013-11-10T17:18:38</dc:date>
        <dc:description>Angry Coder pictogram/icon</dc:description>
        <dc:source>https://openclipart.org/detail/188609/angry-coder-by-ousia-188609</dc:source>
        <dc:creator>
          <cc:Agent>
            <dc:title>ousia</dc:title>
          </cc:Agent>
        </dc:creator>
        <dc:subject>
          <rdf:Bag>
            <rdf:li>Frustration</rdf:li>
            <rdf:li>computer</rdf:li>
          </rdf:Bag>
        </dc:subject>
      </cc:Work>
      <cc:License
         rdf:about="http://creativecommons.org/licenses/publicdomain/">
        <cc:permits
           rdf:resource="http://creativecommons.org/ns#Reproduction" />
        <cc:permits
           rdf:resource="http://creativecommons.org/ns#Distribution" />
        <cc:permits
           rdf:resource="http://creativecommons.org/ns#DerivativeWorks" />
      </cc:License>
    </rdf:RDF>
  </metadata>
</svg>
