<?xml version="1.0" encoding="UTF-8" standalone="no"?>
<svg
   xmlns:dc="http://purl.org/dc/elements/1.1/"
   xmlns:cc="http://creativecommons.org/ns#"
   xmlns:rdf="http://www.w3.org/1999/02/22-rdf-syntax-ns#"
   xmlns:svg="http://www.w3.org/2000/svg"
   xmlns="http://www.w3.org/2000/svg"
   style="fill-rule:evenodd;stroke-width:28.22200012;stroke-linejoin:round"
   id="svg2"
   xml:space="preserve"
   preserveAspectRatio="xMidYMid"
   viewBox="0 0 25909 8397.5255"
   height="83.975258mm"
   width="259.09mm"
   version="1.2"><defs
     id="defs4"
     class="ClipPathGroup"><marker
       style="overflow:visible"
       id="DiamondS"
       refX="0"
       refY="0"
       orient="auto"><path
         transform="scale(0.2,0.2)"
         style="fill:#0066cc;fill-opacity:1;fill-rule:evenodd;stroke:#0066cc;stroke-width:1pt;stroke-opacity:1"
         d="M 0,-7.0710768 -7.0710894,0 0,7.0710589 7.0710462,0 0,-7.0710768 Z"
         id="path5044" /></marker><marker
       style="overflow:visible"
       id="DotS"
       refX="0"
       refY="0"
       orient="auto"><path
         transform="matrix(0.2,0,0,0.2,1.48,0.2)"
         style="fill:#0066cc;fill-opacity:1;fill-rule:evenodd;stroke:#0066cc;stroke-width:1pt;stroke-opacity:1"
         d="m -2.5,-1 c 0,2.76 -2.24,5 -5,5 -2.76,0 -5,-2.24 -5,-5 0,-2.76 2.24,-5 5,-5 2.76,0 5,2.24 5,5 z"
         id="path5026" /></marker><marker
       orient="auto"
       refY="0"
       refX="0"
       id="marker16294"
       style="overflow:visible"><path
         id="path16296"
         d="m 5.77,0 -8.65,5 0,-10 8.65,5 z"
         style="fill:#3deb3d;fill-opacity:1;fill-rule:evenodd;stroke:#3deb3d;stroke-width:1pt;stroke-opacity:1"
         transform="scale(0.2,0.2)" /></marker><marker
       style="overflow:visible"
       id="marker6093"
       refX="0"
       refY="0"
       orient="auto"><path
         transform="scale(0.2,0.2)"
         style="fill:#ff0000;fill-opacity:1;fill-rule:evenodd;stroke:#ff0000;stroke-width:1pt;stroke-opacity:1"
         d="m 5.77,0 -8.65,5 0,-10 8.65,5 z"
         id="path6095" /></marker><marker
       style="overflow:visible"
       id="marker6093-0"
       refX="0"
       refY="0"
       orient="auto"><path
         transform="scale(0.2,0.2)"
         style="fill:#5e11a6;fill-opacity:1;fill-rule:evenodd;stroke:#5e11a6;stroke-width:1pt;stroke-opacity:1"
         d="m 5.77,0 -8.65,5 0,-10 8.65,5 z"
         id="path6095-9" /></marker><marker
       style="overflow:visible"
       id="marker6093-05"
       refX="0"
       refY="0"
       orient="auto"><path
         transform="scale(0.2,0.2)"
         style="fill:#0000ff;fill-opacity:1;fill-rule:evenodd;stroke:#0000ff;stroke-width:1pt;stroke-opacity:1"
         d="m 5.77,0 -8.65,5 0,-10 8.65,5 z"
         id="path6095-6" /></marker><marker
       style="overflow:visible"
       id="marker6093-05-2"
       refX="0"
       refY="0"
       orient="auto"><path
         transform="scale(0.2,0.2)"
         style="fill:#ff420e;fill-opacity:1;fill-rule:evenodd;stroke:#ff420e;stroke-width:1pt;stroke-opacity:1"
         d="m 5.77,0 -8.65,5 0,-10 8.65,5 z"
         id="path6095-6-4" /></marker></defs><defs
     id="defs9" /><defs
     id="defs28" /><defs
     id="defs117" /><defs
     id="defs164" /><defs
     id="defs217" /><defs
     id="defs260" /><defs
     id="defs271"
     class="TextShapeIndex" /><defs
     id="defs275"
     class="EmbeddedBulletChars" /><defs
     id="defs304"
     class="TextEmbeddedBitmaps" /><path
     d="m 492.26987,3849.636 c 746.26983,0 492.26988,-1664.4363 1285.73013,-1664 748.6836,0.4117 3987.1502,0.4117 4516.9445,0.4117 530.5877,0 941.8315,716.897 1170.4587,1023.4166"
     id="path376"
     style="fill:none;stroke:#ff0000;stroke-width:281.99645996;stroke-linecap:butt;stroke-linejoin:round;stroke-miterlimit:4;stroke-dasharray:none;marker-end:url(#marker6093)" /><text
     style="font-size:493.8888855px;fill:#ffffff"
     y="1786.8949"
     x="1391.8245"
     class="TextShape"
     id="text390">Fix compiler warnings</text>
<text
     style="font-size:493.8888855px;fill:#ffffff"
     y="6170.5649"
     x="2938.3245"
     id="text403"
     class="TextShape">Support DDS textures</text>
<path
     style="fill:none;stroke:#3deb3d;stroke-width:282;stroke-linejoin:round;marker-end:url(#marker16294)"
     id="path416"
     d="m 14815.146,2185.6362 c 762,0 507.59,-1494.412 1270,-1494.412 l 1561.871,0 c 511.528,0 681.577,781.8791 937.954,1075.9845" /><path
     d="m 18669.562,3849.636 c 746.27,0 492.27,1664.436 1285.73,1664 748.684,-0.412 1365.347,-0.412 1895.142,-0.412 530.588,0 941.832,-716.897 1170.459,-1023.4165"
     id="path376-0-8"
     style="fill:none;fill-rule:evenodd;stroke:#ff420e;stroke-width:281.99645996;stroke-linecap:butt;stroke-linejoin:round;stroke-miterlimit:4;stroke-dasharray:none;stroke-opacity:1;marker-end:url(#marker6093-05-2)" /><path
     d="m 13529.416,3849.6358 c 746.269,0 492.27,-1664.4361 1285.73,-1663.9998 748.683,0.4117 3987.15,0.4117 4516.944,0.4117 530.588,0 941.832,716.8969 1170.459,1023.4165"
     id="path376-8"
     style="fill:none;fill-rule:evenodd;stroke:#5e11a6;stroke-width:281.99645996;stroke-linecap:butt;stroke-linejoin:round;stroke-miterlimit:4;stroke-dasharray:none;stroke-opacity:1;marker-end:url(#marker6093-0)" /><text
     style="font-size:493.8888855px;fill:#ffffff"
     y="2854.5476"
     x="15451.957"
     id="text430"
     class="TextShape">Improve docs</text>
<text
     style="font-size:493.8888855px;fill:#ffffff"
     y="375.23938"
     x="15715.282"
     id="text443"
     class="TextShape">Fix typos</text>
<path
     style="fill:none;stroke:#e6e64c;stroke-width:282;stroke-linejoin:round"
     id="path456"
     d="m 10414,3849.636 c 762,0 1777.59,3810 2540,3810 763.644,0 1135.296,0 1778,0" /><text
     style="font-size:493.8888855px;fill:#ffffff"
     y="8294.793"
     x="7290.3799"
     id="text461"
     class="TextShape">Support SVG images</text>
<path
     style="fill:#ff0000;stroke:#800000;stroke-width:53;stroke-linejoin:round"
     id="path476"
     d="m 14010.934,7271.636 301,-301 388,388 388,-388 301,301 -388,388 388,388 -301,301 -388,-388 -388,388 -301,-301 388,-388 -388,-388 0,0 z" /><text
     style="font-size:493.8888855px;fill:#ff0000"
     y="7883.4629"
     x="15543.651"
     id="text481"
     class="TextShape">&quot;No longer required&quot;</text>
<path
     d="m 2033.2231,3849.636 c 746.2699,0 492.2699,1664.4361 1285.7302,1663.9998 748.6836,-0.4117 3987.1504,-0.4117 4516.9447,-0.4117 530.5877,0 941.8315,-716.8969 1170.4586,-1023.4165"
     id="path376-0"
     style="fill:none;fill-rule:evenodd;stroke:#0000ff;stroke-width:281.99645996;stroke-linecap:butt;stroke-linejoin:round;stroke-miterlimit:4;stroke-dasharray:none;stroke-opacity:1;marker-end:url(#marker6093-05)" /><path
     style="fill:#00cccc;stroke:none"
     id="path517"
     d="m 0,3504.636 23811,0 0,-671 2098,1016 -2098,1017 0,-672 -23811,0 0,-690 z m 0,-671 0,0 z m 25909,2033 0,0 z" /><text
     y="4068.072"
     x="10754.562"
     style="font-style:normal;font-variant:normal;font-weight:normal;font-stretch:normal;font-size:635px;font-family:monospace;-inkscape-font-specification:monospace;fill:#ffffff"
     id="text519"
     class="TextShape">master</text>
<path
     style="fill:none;stroke:#0066cc;stroke-width:212;stroke-linejoin:round;marker-start:url(#DotS);marker-end:url(#DiamondS)"
     id="path536"
     d="m 11907.433,6218.9254 c 8552.446,0 8546.887,0 9252.561,-705.6739" /><text
     style="font-size:493.8888855px;fill:#0066cc;fill-opacity:1"
     y="5837.4829"
     x="12331.459"
     id="text545"
     class="TextShape">&quot;But keep this part&quot;</text>
<text
     style="font-size:493.8888855px;fill:#ffffff"
     y="6044.7344"
     x="21802.408"
     class="TextShape"
     id="text568">Optimize parser</text>
<metadata
     id="metadata3925"><rdf:RDF><cc:Work
         rdf:about=""><dc:title></dc:title><dc:format>image/svg+xml</dc:format><dc:type
           rdf:resource="http://purl.org/dc/dcmitype/StillImage" /></cc:Work></rdf:RDF></metadata></svg>