<?xml version="1.0" encoding="UTF-8" standalone="no"?>
<svg
   xmlns:dc="http://purl.org/dc/elements/1.1/"
   xmlns:cc="http://creativecommons.org/ns#"
   xmlns:rdf="http://www.w3.org/1999/02/22-rdf-syntax-ns#"
   xmlns:svg="http://www.w3.org/2000/svg"
   xmlns="http://www.w3.org/2000/svg"
   xmlns:sodipodi="http://sodipodi.sourceforge.net/DTD/sodipodi-0.dtd"
   xmlns:inkscape="http://www.inkscape.org/namespaces/inkscape"
   version="1.2"
   width="259.22943mm"
   height="70.388481mm"
   viewBox="0 0 25922.943 7038.8481"
   preserveAspectRatio="xMidYMid"
   xml:space="preserve"
   id="svg2"
   inkscape:version="0.91 r13725"
   sodipodi:docname="branching-no.svg"
   style="fill-rule:evenodd;stroke-width:28.22200012;stroke-linejoin:round"><metadata
     id="metadata518"><rdf:RDF><cc:Work
         rdf:about=""><dc:format>image/svg+xml</dc:format><dc:type
           rdf:resource="http://purl.org/dc/dcmitype/StillImage" /><dc:title></dc:title></cc:Work></rdf:RDF></metadata><sodipodi:namedview
     pagecolor="#0b3838"
     bordercolor="#666666"
     borderopacity="1"
     objecttolerance="10"
     gridtolerance="10"
     guidetolerance="10"
     inkscape:pageopacity="0.34509804"
     inkscape:pageshadow="2"
     inkscape:window-width="1360"
     inkscape:window-height="684"
     id="namedview516"
     showgrid="false"
     inkscape:zoom="1.7941506"
     inkscape:cx="220.10769"
     inkscape:cy="130.50123"
     inkscape:window-x="0"
     inkscape:window-y="30"
     inkscape:window-maximized="1"
     inkscape:current-layer="svg2"
     inkscape:snap-smooth-nodes="true"
     inkscape:snap-midpoints="true"
     showguides="true"
     inkscape:guide-bbox="true"
     inkscape:snap-bbox="true"
     inkscape:snap-bbox-midpoints="true"
     inkscape:object-nodes="true"
     inkscape:object-paths="true"
     inkscape:snap-intersection-paths="true"
     fit-margin-top="0"
     fit-margin-left="0"
     fit-margin-right="0"
     fit-margin-bottom="0"><sodipodi:guide
       position="0,4782.5774"
       orientation="0,1"
       id="guide5696" /><sodipodi:guide
       position="4824.9993,6307.5778"
       orientation="0,1"
       id="guide5998" /><sodipodi:guide
       position="4570.9993,719.57771"
       orientation="0,1"
       id="guide6192" /><sodipodi:guide
       position="14311.177,3381.8822"
       orientation="0,1"
       id="guide8384" /><sodipodi:guide
       position="25908.997,4782.5774"
       orientation="1,0"
       id="guide8794" /><sodipodi:guide
       position="25562.268,6307.5778"
       orientation="1,0"
       id="guide9156" /></sodipodi:namedview><defs
     class="ClipPathGroup"
     id="defs4"><marker
       inkscape:stockid="TriangleOutS"
       orient="auto"
       refY="0"
       refX="0"
       id="marker5626"
       style="overflow:visible"
       inkscape:isstock="true"><path
         id="path5628"
         d="m 5.77,0 -8.65,5 0,-10 8.65,5 z"
         style="fill:#ff950e;fill-opacity:1;fill-rule:evenodd;stroke:#ff950e;stroke-width:1pt;stroke-opacity:1"
         transform="scale(0.2,0.2)"
         inkscape:connector-curvature="0" /></marker><marker
       inkscape:isstock="true"
       style="overflow:visible"
       id="marker5520"
       refX="0"
       refY="0"
       orient="auto"
       inkscape:stockid="TriangleOutS"
       inkscape:collect="always"><path
         transform="scale(0.2,0.2)"
         style="fill:#ff0000;fill-opacity:1;fill-rule:evenodd;stroke:#ff0000;stroke-width:1pt;stroke-opacity:1"
         d="m 5.77,0 -8.65,5 0,-10 8.65,5 z"
         id="path5522"
         inkscape:connector-curvature="0" /></marker><marker
       inkscape:stockid="TriangleOutS"
       orient="auto"
       refY="0"
       refX="0"
       id="marker5468"
       style="overflow:visible"
       inkscape:isstock="true"
       inkscape:collect="always"><path
         id="path5470"
         d="m 5.77,0 -8.65,5 0,-10 8.65,5 z"
         style="fill:#ff950e;fill-opacity:1;fill-rule:evenodd;stroke:#ff950e;stroke-width:1pt;stroke-opacity:1"
         transform="scale(0.2,0.2)"
         inkscape:connector-curvature="0" /></marker><marker
       inkscape:isstock="true"
       style="overflow:visible"
       id="marker5422"
       refX="0"
       refY="0"
       orient="auto"
       inkscape:stockid="TriangleOutS"
       inkscape:collect="always"><path
         transform="scale(0.2,0.2)"
         style="fill:#23ff23;fill-opacity:1;fill-rule:evenodd;stroke:#23ff23;stroke-width:1pt;stroke-opacity:1"
         d="m 5.77,0 -8.65,5 0,-10 8.65,5 z"
         id="path5424"
         inkscape:connector-curvature="0" /></marker><marker
       inkscape:stockid="TriangleOutS"
       orient="auto"
       refY="0"
       refX="0"
       id="TriangleOutS"
       style="overflow:visible"
       inkscape:isstock="true"
       inkscape:collect="always"><path
         id="path5218"
         d="m 5.77,0 -8.65,5 0,-10 8.65,5 z"
         style="fill:#ff00ff;fill-opacity:1;fill-rule:evenodd;stroke:#ff00ff;stroke-width:1pt;stroke-opacity:1"
         transform="scale(0.2,0.2)"
         inkscape:connector-curvature="0" /></marker></defs><defs
     id="defs9" /><defs
     id="defs34" /><defs
     id="defs87" /><defs
     id="defs140" /><defs
     id="defs187" /><defs
     id="defs244" /><defs
     id="defs287" /><defs
     class="TextShapeIndex"
     id="defs298" /><defs
     class="EmbeddedBulletChars"
     id="defs302" /><defs
     class="TextEmbeddedBitmaps"
     id="defs331" /><path
     d="m 2008.7542,2256.2706 c 767.5615,0 1800.2458,4063 2562.2458,4063 l 20991.271,0"
     id="path390"
     inkscape:connector-curvature="0"
     style="fill:none;stroke:#ff950e;stroke-width:282;stroke-linejoin:round;marker-end:url(#marker5468)"
     sodipodi:nodetypes="csc" /><path
     d="M 3560.5614,2256.2706 C 4317,2256.2706 4057.4386,731.27062 4825,731.27062 l 20737.271,0"
     id="path397"
     inkscape:connector-curvature="0"
     style="fill:none;stroke:#ff00ff;stroke-width:282;stroke-linejoin:round;marker-end:url(#TriangleOutS)"
     sodipodi:nodetypes="csc" /><path
     d="m 15477.316,2256.2706 c 762,0 530.245,1400.695 1281.123,1400.695 801.34,0 4131.568,-8.59 8803.832,0"
     id="path417"
     inkscape:connector-curvature="0"
     style="fill:none;stroke:#23ff23;stroke-width:282;stroke-linejoin:round;marker-end:url(#marker5422)"
     sodipodi:nodetypes="csc" /><path
     d="m 0,1911.2707 23811,0 0,-671 2098,1016 -2098,1017 0,-672 -23811,0 0,-690 z m 0,-671 0,0 z m 25909,2033 0,0 z"
     id="path424"
     inkscape:connector-curvature="0"
     style="fill:#00cccc;stroke:none" /><text
     class="TextShape"
     id="text426"
     style="font-size:423.33334351px;fill:#ffffff"
     x="11836.636"
     y="2414.5908">Text editor</text>
<text
     class="TextShape"
     id="text439"
     style="font-size:423.33334351px;fill:#ffffff"
     x="5180.6714"
     y="321.63391">Spell-checker (different project)</text>
<path
     d="m 10915.439,6319.2706 2020.877,0 c 491.331,0 1220.959,-2282.744 1638.959,-3381.744"
     id="path452"
     inkscape:connector-curvature="0"
     style="fill:none;stroke:#ff950e;stroke-width:282;stroke-linejoin:round;marker-end:url(#marker5626)"
     sodipodi:nodetypes="csc" /><text
     class="TextShape"
     id="text459"
     style="font-size:423.33334351px;fill:#ffffff"
     x="4558.2393"
     y="6950.792">XML loader (different project)</text>
<path
     d="m 14410.154,2649.3906 c 587,0 1035,439 1035,1015 0,576 -448,1016 -1035,1016 -587,0 -1035,-440 -1035,-1016 0,-576 448,-1015 1035,-1015 z m -543,793 -10,27 -10,28 -8,28 -6,28 -5,28 -3,29 -2,29 -1,29 1,29 2,29 4,29 6,28 7,28 8,28 9,28 12,27 12,26 14,25 15,25 16,25 18,23 18,22 20,22 21,20 22,20 23,18 24,17 24,16 26,15 26,13 27,13 27,10 28,10 28,8 29,7 29,5 29,4 30,2 29,1 30,-1 29,-2 30,-3 29,-5 29,-6 28,-8 28,-9 28,-11 -770,-754 z m 1085,445 11,-27 9,-28 8,-28 7,-28 5,-29 3,-28 2,-29 1,-29 -1,-29 -2,-29 -4,-29 -6,-29 -6,-28 -9,-28 -9,-27 -11,-27 -13,-26 -14,-26 -15,-25 -16,-24 -17,-24 -19,-22 -20,-22 -21,-20 -22,-20 -23,-18 -23,-17 -25,-16 -26,-15 -26,-13 -27,-13 -27,-10 -28,-10 -28,-8 -29,-7 -29,-5 -30,-4 -29,-2 -30,-1 -29,1 -30,2 -29,3 -29,5 -29,6 -28,8 -29,9 -27,11 769,755 z m -1577,-1238 0,0 z m 2071,2032 0,0 z"
     id="path488"
     inkscape:connector-curvature="0"
     style="fill:#ff0000;fill-opacity:1;stroke:#800000;stroke-width:53.00133514;stroke-miterlimit:4;stroke-dasharray:none;stroke-opacity:1" /><text
     class="TextShape"
     id="text499"
     style="font-size:423.33334351px;fill:#ff0000"
     x="4068.8333"
     y="3773.7544">Here there be dragons</text>
<path
     d="m 11590.253,3656.9656 1605.754,0"
     id="path512"
     inkscape:connector-curvature="0"
     style="fill:none;stroke:#ff0000;stroke-width:106;stroke-linejoin:round;marker-end:url(#marker5520)"
     sodipodi:nodetypes="cc" /><text
     class="TextShape"
     id="text459-6"
     style="font-size:423.33334351px;fill:#ffffff"
     x="16422.398"
     y="4363.7241">GitHub Pages (the exception)</text>
</svg>