<!DOCTYPE svg  PUBLIC '-//W3C//DTD SVG 1.1//EN'  'http://www.w3.org/Graphics/SVG/1.1/DTD/svg11.dtd'>
<svg xmlns="http://www.w3.org/2000/svg" xml:space="preserve" viewBox="0 0 48 48" version="1.1" xmlns:xlink="http://www.w3.org/1999/xlink" enable-background="new 0 0 48 48"><circle cy="24" cx="24" r="24" fill="#CA3737"/><path d="m24 12.1c-6.6 0-11.9 5.3-11.9 11.9 0 4.9 2.9 9 7.1 10.9 0-0.8 0-1.8 0.2-2.7 0.2-1 1.5-6.5 1.5-6.5s-0.4-0.8-0.4-1.9c0-1.8 1-3.1 2.3-3.1 1.1 0 1.6 0.8 1.6 1.8 0 1.1-0.7 2.7-1 4.2-0.3 1.3 0.7 2.3 1.9 2.3 2.3 0 3.8-2.9 3.8-6.3 0-2.6-1.8-4.5-4.9-4.5-3.6 0-5.8 2.7-5.8 5.7 0 1 0.3 1.8 0.8 2.3 0.2 0.3 0.3 0.4 0.2 0.7-0.1 0.2-0.2 0.7-0.2 1-0.1 0.3-0.3 0.4-0.6 0.3-1.7-0.7-2.4-2.5-2.4-4.5 0-3.4 2.8-7.4 8.5-7.4 4.5 0 7.5 3.3 7.5 6.8 0 4.7-2.6 8.1-6.4 8.1-1.3 0-2.5-0.7-2.9-1.5 0 0-0.7 2.7-0.8 3.3-0.3 0.9-0.7 1.8-1.2 2.5 1.1 0.3 2.2 0.5 3.4 0.5 6.6 0 11.9-5.3 11.9-11.9-0.3-6.7-5.6-12-12.2-12z" fill="#fff"/></svg>
